<svg width="70" height="70" viewBox="0 0 70 70" fill="none" xmlns="http://www.w3.org/2000/svg">
<circle cx="35" cy="35" r="35" fill="#1761A0"/>
<path d="M44.1663 22.9167C44.1663 23.6902 43.859 24.4321 43.3121 24.9791C42.7651 25.526 42.0232 25.8333 41.2497 25.8333C40.4761 25.8333 39.7343 25.526 39.1873 24.9791C38.6403 24.4321 38.333 23.6902 38.333 22.9167C38.333 22.1431 38.6403 21.4013 39.1873 20.8543C39.7343 20.3073 40.4761 20 41.2497 20C42.0232 20 42.7651 20.3073 43.3121 20.8543C43.859 21.4013 44.1663 22.1431 44.1663 22.9167V22.9167Z" fill="white"/>
<path fill-rule="evenodd" clip-rule="evenodd" d="M41.2503 24.1667C41.5818 24.1667 41.8998 24.035 42.1342 23.8006C42.3686 23.5661 42.5003 23.2482 42.5003 22.9167C42.5003 22.5851 42.3686 22.2672 42.1342 22.0328C41.8998 21.7984 41.5818 21.6667 41.2503 21.6667C40.9188 21.6667 40.6009 21.7984 40.3664 22.0328C40.132 22.2672 40.0003 22.5851 40.0003 22.9167C40.0003 23.2482 40.132 23.5661 40.3664 23.8006C40.6009 24.035 40.9188 24.1667 41.2503 24.1667ZM41.2503 25.8333C41.6333 25.8333 42.0126 25.7579 42.3665 25.6113C42.7204 25.4647 43.0419 25.2499 43.3127 24.9791C43.5836 24.7082 43.7984 24.3867 43.945 24.0328C44.0915 23.679 44.167 23.2997 44.167 22.9167C44.167 22.5336 44.0915 22.1544 43.945 21.8005C43.7984 21.4466 43.5836 21.1251 43.3127 20.8543C43.0419 20.5834 42.7204 20.3686 42.3665 20.222C42.0126 20.0754 41.6333 20 41.2503 20C40.4768 20 39.7349 20.3073 39.1879 20.8543C38.6409 21.4013 38.3337 22.1431 38.3337 22.9167C38.3337 23.6902 38.6409 24.4321 39.1879 24.9791C39.7349 25.526 40.4768 25.8333 41.2503 25.8333ZM30.8337 28.3333C30.3916 28.3333 29.9677 28.5089 29.6551 28.8215C29.3426 29.134 29.167 29.558 29.167 30C29.167 30.442 29.3426 30.866 29.6551 31.1785C29.9677 31.4911 30.3916 31.6667 30.8337 31.6667H36.667V48.3333C36.667 48.7754 36.8426 49.1993 37.1551 49.5118C37.4677 49.8244 37.8916 50 38.3337 50C38.7757 50 39.1996 49.8244 39.5122 49.5118C39.8247 49.1993 40.0003 48.7754 40.0003 48.3333V40.8333H42.5003V48.3333C42.5003 48.7754 42.6759 49.1993 42.9885 49.5118C43.301 49.8244 43.725 50 44.167 50C44.609 50 45.0329 49.8244 45.3455 49.5118C45.6581 49.1993 45.8337 48.7754 45.8337 48.3333V38.2642C47.067 38.0519 48.176 37.3849 48.9417 36.3949C49.7074 35.4049 50.0741 34.1639 49.9694 32.9167C49.8648 31.6696 49.2964 30.507 48.3764 29.6585C47.4565 28.8099 46.2518 28.3371 45.0003 28.3333H30.8337ZM47.5003 33.3333C47.5003 32.8913 47.3247 32.4674 47.0122 32.1548C46.6996 31.8423 46.2757 31.6667 45.8337 31.6667V35C46.2757 35 46.6996 34.8244 47.0122 34.5118C47.3247 34.1993 47.5003 33.7754 47.5003 33.3333Z" fill="white"/>
<path fill-rule="evenodd" clip-rule="evenodd" d="M20 41.6667C20 41.2247 20.1756 40.8008 20.4882 40.4882C20.8007 40.1757 21.2246 40.0001 21.6667 40.0001H32.5C32.942 40.0001 33.366 40.1757 33.6785 40.4882C33.9911 40.8008 34.1667 41.2247 34.1667 41.6667V48.3334C34.1667 48.7754 33.9911 49.1994 33.6785 49.5119C33.366 49.8245 32.942 50.0001 32.5 50.0001H21.6667C21.2246 50.0001 20.8007 49.8245 20.4882 49.5119C20.1756 49.1994 20 48.7754 20 48.3334V41.6667ZM23.3333 47.5001V42.5001H25V47.5001H23.3333ZM29.1667 42.5001V47.5001H30.8333V42.5001H29.1667ZM24.1667 38.3334C24.1667 37.8914 24.3423 37.4675 24.6548 37.1549C24.9674 36.8423 25.3913 36.6667 25.8333 36.6667H28.3333C28.7754 36.6667 29.1993 36.8423 29.5118 37.1549C29.8244 37.4675 30 37.8914 30 38.3334V40.0001H28.3333V38.3334H25.8333V40.0001H24.1667V38.3334Z" fill="white"/>
</svg>
