<svg width="70" height="70" viewBox="0 0 70 70" fill="none" xmlns="http://www.w3.org/2000/svg">
<circle cx="35" cy="35" r="35" fill="#1761A0"/>
<path d="M28.9062 20H29.0352C30.9043 20 32.6387 20.9908 33.5879 22.6045L35 25.0074L36.4121 22.6045C37.3613 20.9908 39.0957 20 40.9648 20H41.0938C43.9414 20 46.25 22.3086 46.25 25.1562C46.25 26 46.0449 26.7441 45.6875 27.5H48.125C49.1621 27.5 50 28.3379 50 29.375V33.125C50 34.1621 49.1621 35 48.125 35H21.875C20.8396 35 20 34.1621 20 33.125V29.375C20 28.3379 20.8396 27.5 21.875 27.5H24.3125C23.9527 26.7441 23.75 26 23.75 25.1562C23.75 22.3086 26.0586 20 28.9062 20ZM31.1621 24.0301C30.7168 23.276 29.9082 22.8125 29.0352 22.8125H28.9062C27.6113 22.8125 26.5625 23.8619 26.5625 25.1562C26.5625 26.4512 27.6113 27.5 28.9062 27.5H33.2012L31.1621 24.0301ZM41.0938 22.8125H40.9648C40.0918 22.8125 39.2832 23.276 38.8379 24.0301L36.7988 27.5H41.0938C42.3887 27.5 43.4375 26.4512 43.4375 25.1562C43.4375 23.8619 42.3887 22.8125 41.0938 22.8125ZM21.875 36.875H33.125V50H24.6875C23.1342 50 21.875 48.7402 21.875 47.1875V36.875ZM36.875 50V36.875H48.125V47.1875C48.125 48.7402 46.8652 50 45.3125 50H36.875Z" fill="white"/>
</svg>
