<svg width="70" height="70" viewBox="0 0 70 70" fill="none" xmlns="http://www.w3.org/2000/svg">
<circle cx="35" cy="35" r="35" fill="#1761A0"/>
<path d="M46.8374 26.6629L33.5325 30.9857C33.3764 31.0863 33.1971 31.1453 33.0117 31.1571L28.4415 32.6393H47.4493C47.7371 32.6393 48.0131 32.7536 48.2166 32.9571C48.42 33.1606 48.5344 33.4366 48.5344 33.7243V44.5748C48.5344 46.0136 47.9628 47.3936 46.9454 48.411C45.9279 49.4284 44.548 50 43.1091 50H27.9185C26.4797 50 25.0997 49.4284 24.0823 48.411C23.0649 47.3936 22.4933 46.0136 22.4933 44.5748V33.7243C22.4933 33.4943 22.5649 33.2795 22.6886 33.1015L22.2654 31.7951C21.8209 30.4268 21.9381 28.9379 22.5913 27.6559C23.2445 26.374 24.3801 25.404 25.7484 24.9593L40.1947 20.2654C41.5631 19.8209 43.052 19.9381 44.3339 20.5913C45.6158 21.2445 46.5858 22.3801 47.0305 23.7484L47.534 25.2957C47.6229 25.5694 47.5994 25.8672 47.4688 26.1235C47.3381 26.3799 47.111 26.5739 46.8374 26.6629V26.6629ZM38.7125 27.0209L41.5011 22.1903C41.2851 22.2154 41.0721 22.2619 40.8653 22.3292L38.1635 23.2059L35.325 28.1212L38.7104 27.0209H38.7125ZM43.6929 22.7263C43.6795 22.7537 43.665 22.7805 43.6495 22.8066L41.7962 26.0183L45.1338 24.9333L44.9667 24.419C44.7436 23.728 44.2951 23.132 43.6929 22.7263V22.7263ZM35.0776 24.2085L31.6923 25.3087L28.8517 30.224L32.237 29.1237L35.0798 24.2085H35.0776ZM24.4963 31.641L25.7701 31.2287L28.6064 26.3113L26.419 27.0231C25.598 27.2899 24.9166 27.8719 24.5247 28.6411C24.1328 29.4102 24.0625 30.3036 24.3292 31.1246L24.4963 31.641V31.641Z" fill="white"/>
</svg>
