<svg width="70" height="70" viewBox="0 0 70 70" fill="none" xmlns="http://www.w3.org/2000/svg">
<circle cx="35" cy="35" r="35" fill="#1761A0"/>
<path d="M21.8716 27.5517L28.4647 29.4551L35.7113 24.1921L25.3115 24.4903C25.2096 24.4958 25.1109 24.5274 25.0248 24.582L21.734 26.4739C21.6316 26.5306 21.5486 26.6168 21.4957 26.7211C21.4429 26.8255 21.4225 26.9434 21.4373 27.0595C21.4521 27.1756 21.5015 27.2845 21.5789 27.3723C21.6563 27.46 21.7583 27.5226 21.8716 27.5517V27.5517Z" fill="white"/>
<path d="M54.2861 21.6581L47.0623 20.0987C46.4548 19.9668 45.826 19.9671 45.2187 20.0997C44.6113 20.2322 44.0395 20.4939 43.5422 20.8669L21.722 36.7247L16.482 36.4953C16.1818 36.4851 15.8861 36.5695 15.6364 36.7364C15.3868 36.9034 15.1959 37.1446 15.0908 37.4259C14.9856 37.7072 14.9714 38.0144 15.0503 38.3042C15.1292 38.5939 15.2971 38.8516 15.5303 39.0408L20.6327 43.0884C20.7167 43.1562 20.8167 43.2012 20.9231 43.2193C21.0295 43.2374 21.1388 43.2278 21.2405 43.1916C22.6967 42.6298 28.1202 39.7517 34.5298 36.2316L35.814 49.4292C35.8249 49.5435 35.8668 49.6527 35.9352 49.7449C36.0035 49.8372 36.0958 49.909 36.202 49.9526C36.3082 49.9963 36.4243 50.0101 36.5378 49.9927C36.6513 49.9752 36.7578 49.9271 36.846 49.8535L39.7125 47.4685C39.8694 47.3369 39.975 47.1542 40.0106 46.9525L42.7281 31.7139C47.3146 29.1684 51.6947 26.7032 54.7791 24.9603C55.0992 24.7862 55.358 24.5178 55.5205 24.1916C55.6829 23.8654 55.7412 23.4972 55.6874 23.1368C55.6336 22.7764 55.4703 22.4412 55.2196 22.1767C54.969 21.9122 54.6431 21.7311 54.2861 21.6581V21.6581Z" fill="white"/>
</svg>
