<svg width="20" height="20" viewBox="0 0 20 20" fill="none" xmlns="http://www.w3.org/2000/svg">
<path d="M20 4.84375V15.1562C19.9883 15.2063 19.9727 15.2559 19.9652 15.3066C19.6457 17.5055 18.4391 18.9871 16.35 19.734C15.9691 19.8703 15.5551 19.9137 15.1562 20.0004H4.84375C4.80039 19.9895 4.75703 19.9742 4.71289 19.9676C2.50391 19.6539 1.01641 18.4457 0.265625 16.3492C0.129297 15.9688 0.0859375 15.5547 0 15.1562V4.84375C0.0125 4.78164 0.0304687 4.71992 0.0371094 4.65703C0.245703 2.63633 1.76367 0.807422 3.72187 0.238672C4.08789 0.132031 4.46914 0.078125 4.84375 0H15.1562C15.2063 0.0117188 15.2559 0.0273438 15.3066 0.034375C17.484 0.345313 18.9559 1.53906 19.716 3.59453C19.8629 3.9918 19.9082 4.42656 20 4.84375ZM16.4844 10.0039C16.4844 9.03398 16.4855 8.06406 16.484 7.09414C16.4809 5.06641 14.9383 3.51875 12.9137 3.51602C10.9672 3.51367 9.02109 3.51367 7.07461 3.51797C6.84805 3.51836 6.61758 3.53359 6.3957 3.57695C4.67852 3.91484 3.51758 5.33203 3.51562 7.08555C3.51367 9.01875 3.51445 10.9523 3.51523 12.8855C3.51641 14.9387 5.05547 16.482 7.10508 16.4836C9.03203 16.4855 10.959 16.4852 12.8855 16.4836C14.9395 16.482 16.4813 14.9434 16.4836 12.8937C16.4852 11.9309 16.4844 10.9676 16.4844 10.0039Z" fill="#4E555B"/>
<path d="M15.3125 9.99932C15.3125 10.9688 15.3137 11.9388 15.3122 12.9083C15.3102 14.2872 14.286 15.311 12.9047 15.3122C10.9653 15.3138 9.02622 15.3142 7.08677 15.3122C5.71841 15.3106 4.68911 14.2837 4.68794 12.9192C4.68638 10.9735 4.68638 9.02744 4.68794 7.08174C4.68911 5.7165 5.71802 4.68955 7.08559 4.68799C9.0313 4.68604 10.9774 4.68604 12.9231 4.68799C14.2793 4.68955 15.3086 5.71689 15.3122 7.07041C15.3145 8.04697 15.3125 9.02314 15.3125 9.99932ZM7.07036 9.99697C7.06919 11.611 8.38481 12.929 9.99692 12.9294C11.6114 12.9298 12.9282 11.6157 12.9293 10.0024C12.9305 8.38799 11.6161 7.07119 10.0024 7.07041C8.38794 7.06963 7.07153 8.38369 7.07036 9.99697ZM13.9446 6.64814C13.9489 6.33174 13.6883 6.06221 13.3719 6.05518C13.0563 6.04814 12.7836 6.30713 12.7743 6.62314C12.7645 6.94697 13.0325 7.22432 13.3567 7.22588C13.6727 7.22744 13.9403 6.96455 13.9446 6.64814Z" fill="#4E555B"/>
<path d="M9.99497 8.24317C10.968 8.24083 11.7594 9.03184 11.7575 10.0049C11.7555 10.969 10.9692 11.7553 10.0059 11.7576C9.03404 11.76 8.24146 10.9678 8.24341 9.99591C8.24458 9.03223 9.0313 8.24512 9.99497 8.24317Z" fill="#4E555B"/>
</svg>
