<svg width="25" height="20" viewBox="0 0 25 20" fill="none" xmlns="http://www.w3.org/2000/svg">
<path opacity="0.3" d="M7.8139 19.5001C16.8709 19.5001 21.8254 11.9956 21.8254 5.49906C21.8254 5.28906 21.8254 5.07606 21.8164 4.86606C22.781 4.16779 23.6135 3.30329 24.2749 2.31306C23.3739 2.71034 22.419 2.97217 21.4414 3.09006C22.4712 2.47452 23.2425 1.50602 23.6119 0.364563C22.6444 0.937749 21.5854 1.34012 20.4814 1.55406C19.7392 0.763599 18.757 0.23994 17.687 0.0641994C16.6171 -0.111541 15.519 0.0704454 14.5629 0.581969C13.6068 1.09349 12.8461 1.90601 12.3986 2.89365C11.951 3.8813 11.8417 4.98896 12.0874 6.04506C10.1295 5.94689 8.21413 5.43827 6.46547 4.55218C4.71681 3.66609 3.17393 2.42233 1.9369 0.901563C1.30891 1.98619 1.11726 3.26916 1.40087 4.48996C1.68448 5.71076 2.42208 6.77786 3.4639 7.47456C2.68321 7.44804 1.91968 7.2384 1.2349 6.86256V6.93006C1.23625 8.06628 1.62986 9.16719 2.34921 10.0467C3.06856 10.9262 4.06952 11.5304 5.1829 11.7571C4.7603 11.8735 4.32375 11.9315 3.8854 11.9296C3.57638 11.9305 3.26797 11.9019 2.9644 11.8441C3.27908 12.8221 3.89181 13.6773 4.71677 14.2898C5.54173 14.9022 6.5376 15.2413 7.5649 15.2596C5.81974 16.6303 3.664 17.3737 1.4449 17.3701C1.05388 17.3717 0.663137 17.3492 0.274902 17.3026C2.52717 18.7385 5.14285 19.5009 7.8139 19.5001Z" fill="white"/>
</svg>
