<svg width="21" height="21" viewBox="0 0 21 21" fill="none" xmlns="http://www.w3.org/2000/svg">
<path d="M11.1165 21C10.7334 21 10.3509 21 9.96789 21C9.66998 20.9667 9.37105 20.94 9.07417 20.899C7.58001 20.6914 6.19148 20.1911 4.91831 19.3792C4.78705 19.2957 4.67424 19.2746 4.52093 19.3244C3.32161 19.7155 2.1192 20.0968 0.917826 20.4808C0.851681 20.5018 0.785023 20.5212 0.691702 20.5494C1.11113 19.3013 1.51467 18.0926 1.9259 16.8865C1.98127 16.7245 1.97461 16.6036 1.87052 16.4554C0.991662 15.2032 0.424046 13.8182 0.164593 12.3101C0.0897316 11.875 0.0538389 11.4331 0 10.9938C0 10.6248 0 10.2557 0 9.88665C0.0128188 9.81386 0.0271758 9.74158 0.0379436 9.6688C0.105114 9.21003 0.144596 8.74563 0.243044 8.29353C0.796303 5.75726 2.10843 3.68488 4.18252 2.13226C6.72833 0.226983 9.59153 -0.402471 12.706 0.247999C15.2174 0.772373 17.2602 2.08715 18.8221 4.1175C20.508 6.30932 21.21 8.8056 20.9459 11.5525C20.7331 13.771 19.8743 15.7317 18.3986 17.4063C16.7706 19.2541 14.7401 20.4049 12.3107 20.8365C11.9153 20.9072 11.5149 20.9462 11.1165 21ZM13.8853 16.4175C14.2258 16.3524 14.5242 16.3314 14.7975 16.2376C16.2824 15.7286 16.7865 15.0125 16.829 13.6413C16.8357 13.423 16.7531 13.2789 16.5568 13.1856C15.7804 12.8161 15.0093 12.4362 14.2304 12.0728C13.8171 11.8801 13.5807 11.9544 13.3105 12.3194C13.107 12.5936 12.9075 12.8704 12.6968 13.1395C12.383 13.5404 12.1522 13.5967 11.682 13.405C9.96738 12.7064 8.68396 11.5131 7.71896 9.95379C7.48412 9.57397 7.49592 9.46171 7.79639 9.12238C7.98662 8.90761 8.18454 8.69899 8.36247 8.47447C8.52962 8.2638 8.68448 8.03314 8.56398 7.74404C8.20146 6.87572 7.8369 6.00792 7.46002 5.14575C7.41285 5.03811 7.3021 4.90945 7.19801 4.88382C6.64629 4.74696 6.07098 4.71671 5.61104 5.09039C4.58554 5.92385 4.26302 7.0459 4.46043 8.32019C4.59887 9.21311 5.01881 9.9948 5.52644 10.7345C6.34171 11.9226 7.26262 13.0155 8.36042 13.9561C9.58179 15.0028 11.0001 15.6671 12.5276 16.1161C12.9834 16.2488 13.4561 16.3232 13.8853 16.4175Z" fill="#4E555B"/>
</svg>
