<svg width="21" height="15" viewBox="0 0 21 15" fill="none" xmlns="http://www.w3.org/2000/svg">
<path opacity="0.3" d="M20.1429 2.20301C20.029 1.78041 19.8064 1.39501 19.4973 1.08518C19.1881 0.775338 18.8032 0.551868 18.3809 0.437007C16.8149 0.00700739 10.5499 7.59651e-06 10.5499 7.59651e-06C10.5499 7.59651e-06 4.28589 -0.00699261 2.71889 0.404007C2.29682 0.524154 1.91271 0.750785 1.60346 1.06214C1.2942 1.3735 1.07018 1.75913 0.95289 2.18201C0.53989 3.74801 0.53589 6.99601 0.53589 6.99601C0.53589 6.99601 0.53189 10.26 0.94189 11.81C1.17189 12.667 1.84689 13.344 2.70489 13.575C4.28689 14.005 10.5349 14.012 10.5349 14.012C10.5349 14.012 16.7999 14.019 18.3659 13.609C18.7884 13.4943 19.1736 13.2714 19.4835 12.9622C19.7934 12.653 20.0173 12.2682 20.1329 11.846C20.5469 10.281 20.5499 7.03401 20.5499 7.03401C20.5499 7.03401 20.5699 3.76901 20.1429 2.20301ZM8.54589 10.005L8.55089 4.00501L13.7579 7.01001L8.54589 10.005Z" fill="white"/>
</svg>
